<svg width="60" height="60" viewBox="0 0 60 60" fill="none" xmlns="http://www.w3.org/2000/svg">
<path d="M27.2727 40.9091V24.5455H19.0909V19.0909H40.9091V24.5455H32.7273V40.9091H27.2727ZM0 60V43.6364H5.45455V16.3636H0V0H16.3636V5.45455H43.6364V0H60V16.3636H54.5455V43.6364H60V60H43.6364V54.5455H16.3636V60H0ZM16.3636 49.0909H43.6364V43.6364H49.0909V16.3636H43.6364V10.9091H16.3636V16.3636H10.9091V43.6364H16.3636V49.0909ZM5.45455 10.9091H10.9091V5.45455H5.45455V10.9091ZM49.0909 10.9091H54.5455V5.45455H49.0909V10.9091ZM49.0909 54.5455H54.5455V49.0909H49.0909V54.5455ZM5.45455 54.5455H10.9091V49.0909H5.45455V54.5455Z" fill="#FDB623"/>
</svg>
