<svg width="71" height="53" viewBox="0 0 71 53" fill="none" xmlns="http://www.w3.org/2000/svg">
<path d="M18.7854 35.3853L12.5729 28.6824C15.4819 25.6167 18.8968 23.188 22.8176 21.3964C26.7364 19.6027 30.9639 18.7059 35.5 18.7059C40.0361 18.7059 44.2646 19.6152 48.1853 21.4338C52.1041 23.2525 55.5181 25.7206 58.4271 28.8382L52.2146 35.3853C50.0451 33.099 47.5306 31.3064 44.6708 30.0074C41.8111 28.7083 38.7542 28.0588 35.5 28.0588C32.2458 28.0588 29.1889 28.7083 26.3292 30.0074C23.4694 31.3064 20.9549 33.099 18.7854 35.3853ZM6.2125 22.1353L0 15.5882C4.53611 10.7039 9.83646 6.8848 15.901 4.13088C21.9656 1.37696 28.4986 0 35.5 0C42.5014 0 49.0344 1.37696 55.099 4.13088C61.1635 6.8848 66.4639 10.7039 71 15.5882L64.7875 22.1353C60.991 18.1343 56.5909 15.0032 51.5874 12.7418C46.5819 10.4826 41.2194 9.35294 35.5 9.35294C29.7806 9.35294 24.4181 10.4826 19.4126 12.7418C14.4091 15.0032 10.009 18.1343 6.2125 22.1353ZM35.5 53L45.9281 41.9324C44.5969 40.5294 43.0437 39.4247 41.2687 38.6183C39.4937 37.8139 37.5708 37.4118 35.5 37.4118C33.4292 37.4118 31.5063 37.8139 29.7312 38.6183C27.9562 39.4247 26.4031 40.5294 25.0719 41.9324L35.5 53Z" fill="#FDB623"/>
</svg>
