<svg width="60" height="58" viewBox="0 0 60 58" fill="none" xmlns="http://www.w3.org/2000/svg">
<path d="M30 12.8889V0H0V58H60V12.8889H30ZM12 51.5556H6V45.1111H12V51.5556ZM12 38.6667H6V32.2222H12V38.6667ZM12 25.7778H6V19.3333H12V25.7778ZM12 12.8889H6V6.44444H12V12.8889ZM24 51.5556H18V45.1111H24V51.5556ZM24 38.6667H18V32.2222H24V38.6667ZM24 25.7778H18V19.3333H24V25.7778ZM24 12.8889H18V6.44444H24V12.8889ZM54 51.5556H30V45.1111H36V38.6667H30V32.2222H36V25.7778H30V19.3333H54V51.5556ZM48 25.7778H42V32.2222H48V25.7778ZM48 38.6667H42V45.1111H48V38.6667Z" fill="#FDB623"/>
</svg>
