<svg width="60" height="60" viewBox="0 0 60 60" fill="none" xmlns="http://www.w3.org/2000/svg">
<path d="M0.0120401 60L4.06804 45.096C1.39545 40.5145 -0.00867189 35.304 4.02967e-05 30C4.02967e-05 13.431 13.431 0 30 0C46.569 0 60 13.431 60 30C60 46.569 46.569 60 30 60C24.6984 60.0085 19.49 58.6055 14.91 55.935L0.0120401 60ZM19.173 15.924C18.7856 15.948 18.4071 16.0501 18.06 16.224C17.7346 16.4083 17.4375 16.6387 17.178 16.908C16.818 17.247 16.614 17.541 16.395 17.826C15.2863 19.269 14.6899 21.0402 14.7 22.86C14.706 24.33 15.09 25.761 15.69 27.099C16.917 29.805 18.936 32.67 21.603 35.325C22.245 35.964 22.872 36.606 23.547 37.203C26.8572 40.1174 30.8018 42.2191 35.067 43.341L36.774 43.602C37.329 43.632 37.884 43.59 38.442 43.563C39.3157 43.5179 40.1689 43.2813 40.941 42.87C41.3339 42.6676 41.7173 42.4474 42.09 42.21C42.09 42.21 42.219 42.126 42.465 41.94C42.87 41.64 43.119 41.427 43.455 41.076C43.704 40.818 43.92 40.515 44.085 40.17C44.319 39.681 44.553 38.748 44.649 37.971C44.721 37.377 44.7 37.053 44.691 36.852C44.679 36.531 44.412 36.198 44.121 36.057L42.375 35.274C42.375 35.274 39.765 34.137 38.172 33.411C38.0041 33.3378 37.8241 33.2961 37.641 33.288C37.4358 33.2669 37.2284 33.29 37.0328 33.3557C36.8372 33.4214 36.6579 33.5282 36.507 33.669V33.663C36.492 33.663 36.291 33.834 34.122 36.462C33.9975 36.6293 33.826 36.7557 33.6294 36.8251C33.4328 36.8946 33.22 36.9039 33.018 36.852C32.8225 36.7997 32.6311 36.7335 32.445 36.654C32.073 36.498 31.944 36.438 31.689 36.327L31.674 36.321C29.9577 35.5717 28.3687 34.5595 26.964 33.321C26.586 32.991 26.235 32.631 25.875 32.283C24.6948 31.1527 23.6662 29.874 22.815 28.479L22.638 28.194C22.5109 28.0025 22.4081 27.7959 22.332 27.579C22.218 27.138 22.515 26.784 22.515 26.784C22.515 26.784 23.244 25.986 23.583 25.554C23.8653 25.1949 24.1286 24.8214 24.372 24.435C24.726 23.865 24.837 23.28 24.651 22.827C23.811 20.775 22.941 18.732 22.047 16.704C21.87 16.302 21.345 16.014 20.868 15.957C20.706 15.939 20.544 15.921 20.382 15.909C19.9791 15.889 19.5754 15.893 19.173 15.921V15.924Z" fill="#FDB623"/>
</svg>
