<svg width="50" height="50" viewBox="0 0 50 50" fill="none" xmlns="http://www.w3.org/2000/svg">
<path d="M2.77778 0C2.04107 0 1.33453 0.292658 0.813592 0.813592C0.292658 1.33453 0 2.04107 0 2.77778C0 15.3019 4.97518 27.313 13.8311 36.1689C22.687 45.0248 34.6981 50 47.2222 50C47.9589 50 48.6655 49.7073 49.1864 49.1864C49.7073 48.6655 50 47.9589 50 47.2222V37.5C50 36.7633 49.7073 36.0567 49.1864 35.5358C48.6655 35.0149 47.9589 34.7222 47.2222 34.7222C43.75 34.7222 40.4167 34.1667 37.3056 33.1389C36.8171 32.9833 36.2957 32.9632 35.7967 33.0806C35.2978 33.198 34.84 33.4485 34.4722 33.8056L28.3611 39.9167C20.4755 35.9062 14.0661 29.4967 10.0556 21.6111L16.1667 15.4722C16.5346 15.1232 16.7953 14.6764 16.9183 14.1844C17.0413 13.6924 17.0215 13.1756 16.8611 12.6944C15.8074 9.4946 15.2728 6.14666 15.2778 2.77778C15.2778 2.04107 14.9851 1.33453 14.4642 0.813592C13.9433 0.292658 13.2367 0 12.5 0H2.77778ZM44.4444 22.2222V18.0556H34.7222L50 2.77778L47.2222 0L31.9444 15.2778V5.55556H27.7778V22.2222H44.4444Z" fill="#FDB623"/>
</svg>
