<svg width="60" height="60" viewBox="0 0 60 60" fill="none" xmlns="http://www.w3.org/2000/svg">
<g clip-path="url(#clip0_7_240)">
<path d="M30 0C32.7539 0 35.4102 0.351562 37.9688 1.05469C40.5273 1.75781 42.9199 2.76367 45.1465 4.07227C47.373 5.38086 49.3945 6.94336 51.2109 8.75977C53.0273 10.5762 54.5898 12.6074 55.8984 14.8535C57.207 17.0996 58.2129 19.4922 58.916 22.0312C59.6191 24.5703 59.9805 27.2266 60 30C60 32.7539 59.6484 35.4102 58.9453 37.9688C58.2422 40.5273 57.2363 42.9199 55.9277 45.1465C54.6191 47.373 53.0566 49.3945 51.2402 51.2109C49.4238 53.0273 47.3926 54.5898 45.1465 55.8984C42.9004 57.207 40.5078 58.2129 37.9688 58.916C35.4297 59.6191 32.7734 59.9805 30 60C27.2461 60 24.5898 59.6484 22.0312 58.9453C19.4727 58.2422 17.0801 57.2363 14.8535 55.9277C12.627 54.6191 10.6055 53.0566 8.78906 51.2402C6.97266 49.4238 5.41016 47.3926 4.10156 45.1465C2.79297 42.9004 1.78711 40.5176 1.08398 37.998C0.380859 35.4785 0.0195312 32.8125 0 30C0 27.2461 0.351562 24.5898 1.05469 22.0312C1.75781 19.4727 2.76367 17.0801 4.07227 14.8535C5.38086 12.627 6.94336 10.6055 8.75977 8.78906C10.5762 6.97266 12.6074 5.41016 14.8535 4.10156C17.0996 2.79297 19.4824 1.78711 22.002 1.08398C24.5215 0.380859 27.1875 0.0195312 30 0ZM30 56.25C32.4023 56.25 34.7168 55.9375 36.9434 55.3125C39.1699 54.6875 41.2598 53.8086 43.2129 52.6758C45.166 51.543 46.9434 50.166 48.5449 48.5449C50.1465 46.9238 51.5137 45.1562 52.6465 43.2422C53.7793 41.3281 54.668 39.2383 55.3125 36.9727C55.957 34.707 56.2695 32.3828 56.25 30C56.25 27.5977 55.9375 25.2832 55.3125 23.0566C54.6875 20.8301 53.8086 18.7402 52.6758 16.7871C51.543 14.834 50.166 13.0566 48.5449 11.4551C46.9238 9.85352 45.1562 8.48633 43.2422 7.35352C41.3281 6.2207 39.2383 5.33203 36.9727 4.6875C34.707 4.04297 32.3828 3.73047 30 3.75C27.5977 3.75 25.2832 4.0625 23.0566 4.6875C20.8301 5.3125 18.7402 6.19141 16.7871 7.32422C14.834 8.45703 13.0566 9.83398 11.4551 11.4551C9.85352 13.0762 8.48633 14.8438 7.35352 16.7578C6.2207 18.6719 5.33203 20.7617 4.6875 23.0273C4.04297 25.293 3.73047 27.6172 3.75 30C3.75 32.4023 4.0625 34.7168 4.6875 36.9434C5.3125 39.1699 6.19141 41.2598 7.32422 43.2129C8.45703 45.166 9.83398 46.9434 11.4551 48.5449C13.0762 50.1465 14.8438 51.5137 16.7578 52.6465C18.6719 53.7793 20.7617 54.668 23.0273 55.3125C25.293 55.957 27.6172 56.2695 30 56.25ZM47.4902 30.4688L48.8965 26.25H51.0938L48.6035 33.75H46.4062L45 29.5312L43.5938 33.75H41.3965L38.9062 26.25H41.1035L42.5098 30.4688L43.916 26.25H46.084L47.4902 30.4688ZM33.8965 26.25H36.0938L33.6035 33.75H31.4062L30 29.5312L28.5938 33.75H26.3965L23.9062 26.25H26.1035L27.5098 30.4688L28.916 26.25H31.084L32.4902 30.4688L33.8965 26.25ZM18.8965 26.25H21.0938L18.6035 33.75H16.4062L15 29.5312L13.5938 33.75H11.3965L8.90625 26.25H11.1035L12.5098 30.4688L13.916 26.25H16.084L17.4902 30.4688L18.8965 26.25Z" fill="#FDB623"/>
</g>
<defs>
<clipPath id="clip0_7_240">
<rect width="60" height="60" fill="white"/>
</clipPath>
</defs>
</svg>
