<svg width="60" height="50" viewBox="0 0 60 50" fill="none" xmlns="http://www.w3.org/2000/svg">
<path d="M60 5.80353C57.7916 6.81915 55.4111 7.48655 52.9446 7.80575C55.4685 6.26781 57.4187 3.83033 58.3365 0.899547C55.956 2.35043 53.3174 3.36605 50.5354 3.9464C48.2696 1.45088 45.086 0 41.4723 0C34.7323 0 29.2256 5.57139 29.2256 12.4486C29.2256 13.4352 29.3403 14.3928 29.5411 15.2923C19.3308 14.77 10.239 9.80797 4.18738 2.29239C3.1262 4.12051 2.5239 6.26781 2.5239 8.53119C2.5239 12.8548 4.67495 16.6851 8.00191 18.8615C5.96558 18.8615 4.07266 18.2811 2.40918 17.4106V17.4976C2.40918 23.5333 6.65392 28.5824 12.2753 29.7141C10.4705 30.2138 8.5758 30.2833 6.73996 29.9172C7.51895 32.3909 9.04456 34.5554 11.1023 36.1065C13.1601 37.6575 15.6466 38.5171 18.2122 38.5645C13.8632 42.0478 8.47227 43.9307 2.92543 43.9037C1.95029 43.9037 0.975144 43.8457 0 43.7296C5.44933 47.2697 11.9312 49.33 18.8719 49.33C41.4723 49.33 53.891 30.3525 53.891 13.8995C53.891 13.3481 53.891 12.8258 53.8623 12.2745C56.2715 10.5334 58.3365 8.32806 60 5.80353Z" fill="#FDB623"/>
</svg>
