<svg width="56" height="60" viewBox="0 0 56 60" fill="none" xmlns="http://www.w3.org/2000/svg">
<path d="M49.7778 5.933H46.6667V0H40.4444V5.933H15.5556V0H9.33333V5.933H6.22222C4.57199 5.933 2.98934 6.55808 1.82245 7.67074C0.655553 8.78339 0 10.2925 0 11.866V53.397C0 54.9705 0.655553 56.4796 1.82245 57.5923C2.98934 58.7049 4.57199 59.33 6.22222 59.33H49.7778C53.2 59.33 56 56.6602 56 53.397V11.866C56 8.60285 53.2 5.933 49.7778 5.933ZM28 14.8325C33.1644 14.8325 37.3333 18.8076 37.3333 23.732C37.3333 28.6564 33.1644 32.6315 28 32.6315C22.8356 32.6315 18.6667 28.6564 18.6667 23.732C18.6667 18.8076 22.8356 14.8325 28 14.8325ZM46.6667 50.4305H9.33333V47.464C9.33333 41.531 21.7778 38.2678 28 38.2678C34.2222 38.2678 46.6667 41.531 46.6667 47.464V50.4305Z" fill="#FDB623"/>
</svg>
