<svg width="60" height="45" viewBox="0 0 60 45" fill="none" xmlns="http://www.w3.org/2000/svg">
<path d="M51 15C48.5 15 46.375 14.2708 44.625 12.8125C42.875 11.3542 42 9.58333 42 7.5C42 5.41667 42.875 3.64583 44.625 2.1875C46.375 0.729167 48.5 0 51 0C53.5 0 55.625 0.729167 57.375 2.1875C59.125 3.64583 60 5.41667 60 7.5C60 9.58333 59.125 11.3542 57.375 12.8125C55.625 14.2708 53.5 15 51 15ZM6 45C4.35 45 2.938 44.5108 1.764 43.5325C0.588 42.5525 0 41.375 0 40V10C0 8.625 0.588 7.44833 1.764 6.47C2.938 5.49 4.35 5 6 5H36.3C36.1 5.83333 36 6.66667 36 7.5C36 8.33333 36.1 9.16667 36.3 10C36.65 11.3333 37.225 12.5725 38.025 13.7175C38.825 14.8642 39.8 15.875 40.95 16.75L30 22.5L6 10V15L30 27.5L45.825 19.25C46.675 19.5 47.525 19.6875 48.375 19.8125C49.225 19.9375 50.1 20 51 20C52.6 20 54.175 19.7917 55.725 19.375C57.275 18.9583 58.7 18.3333 60 17.5V40C60 41.375 59.413 42.5525 58.239 43.5325C57.063 44.5108 55.65 45 54 45H6Z" fill="#FDB623"/>
</svg>
