<svg width="57" height="64" viewBox="0 0 57 64" fill="none" xmlns="http://www.w3.org/2000/svg">
<path d="M22.9583 49.5557L16.2292 42.8269C15.5958 42.1936 15.2792 41.4284 15.2792 40.5312C15.2792 39.634 15.5958 38.8688 16.2292 38.2355C16.8625 37.6022 17.6278 37.2855 18.525 37.2855C19.4222 37.2855 20.1875 37.6022 20.8208 38.2355L25.175 42.5894L36.1792 31.5858C36.8125 30.9525 37.5778 30.6359 38.475 30.6359C39.3722 30.6359 40.1375 30.9525 40.7708 31.5858C41.4042 32.2191 41.7208 32.9844 41.7208 33.8815C41.7208 34.7787 41.4042 35.544 40.7708 36.1773L27.3917 49.5557C26.8111 50.1362 26.0722 50.4265 25.175 50.4265C24.2778 50.4265 23.5389 50.1362 22.9583 49.5557ZM6.33333 63.33C4.59167 63.33 3.10017 62.7104 1.85883 61.4713C0.619611 60.23 0 58.7386 0 56.997V12.666C0 10.9244 0.619611 9.43406 1.85883 8.1949C3.10017 6.95363 4.59167 6.333 6.33333 6.333H9.5V3.1665C9.5 2.26933 9.80295 1.51675 10.4088 0.908785C11.0168 0.302928 11.7694 0 12.6667 0C13.5639 0 14.3165 0.302928 14.9245 0.908785C15.5304 1.51675 15.8333 2.26933 15.8333 3.1665V6.333H41.1667V3.1665C41.1667 2.26933 41.4707 1.51675 42.0787 0.908785C42.6846 0.302928 43.4361 0 44.3333 0C45.2306 0 45.9821 0.302928 46.588 0.908785C47.196 1.51675 47.5 2.26933 47.5 3.1665V6.333H50.6667C52.4083 6.333 53.8998 6.95363 55.1412 8.1949C56.3804 9.43406 57 10.9244 57 12.666V56.997C57 58.7386 56.3804 60.23 55.1412 61.4713C53.8998 62.7104 52.4083 63.33 50.6667 63.33H6.33333ZM6.33333 56.997H50.6667V25.332H6.33333V56.997Z" fill="#FDB623"/>
</svg>
